<svg width="22" height="25" viewBox="0 0 22 25" fill="none" xmlns="http://www.w3.org/2000/svg">
<g clip-path="url(#clip0_622_139)">
<path d="M20.197 13.6801L18.2128 12.5034L20.197 11.3267C21.9235 10.302 22.5115 8.03256 21.5161 6.25737C20.5207 4.47991 18.3163 3.87458 16.592 4.89934L14.6078 6.076V3.71361C14.6078 1.6641 12.9914 0 11.0006 0C9.00984 0 7.39342 1.6641 7.39342 3.71361V6.076L5.40924 4.89934C3.68271 3.87458 1.48051 4.47991 0.485114 6.25737C-0.510282 8.03482 0.0777064 10.302 1.80423 11.3267L3.78842 12.5034L1.80423 13.6801C0.0777064 14.7048 -0.510282 16.9742 0.485114 18.7494C1.48051 20.5269 3.68491 21.1322 5.40924 20.1075L7.39342 18.9308V21.2864C7.39342 23.3359 9.00984 25 11.0006 25C12.9914 25 14.6078 23.3359 14.6078 21.2864V18.924L16.592 20.1007C18.3185 21.1254 20.5207 20.5201 21.5161 18.7426C22.5115 16.972 21.9235 14.7025 20.197 13.6801Z" fill="#D7F4BC"/>
</g>
<defs>
<clipPath id="clip0_622_139">
<rect width="22" height="25" fill="white"/>
</clipPath>
</defs>
</svg>
