<svg width="27" height="31" viewBox="0 0 27 31" fill="none" xmlns="http://www.w3.org/2000/svg">
<g clip-path="url(#clip0_671_215)">
<path d="M24.787 16.9633L22.3519 15.5042L24.787 14.0452C26.906 12.7745 27.6276 9.96037 26.406 7.75914C25.1843 5.55509 22.4789 4.80448 20.3627 6.07518L17.9276 7.53423V4.60488C17.9276 2.06348 15.9438 0 13.5006 0C11.0573 0 9.07352 2.06348 9.07352 4.60488V7.53423L6.63839 6.07518C4.51947 4.80448 1.81677 5.55509 0.595145 7.75914C-0.626477 9.96318 0.0951449 12.7745 2.21406 14.0452L4.6492 15.5042L2.21406 16.9633C0.0951449 18.234 -0.626477 21.0481 0.595145 23.2493C1.81677 25.4533 4.52217 26.204 6.63839 24.9333L9.07352 23.4742V26.3951C9.07352 28.9365 11.0573 31 13.5006 31C15.9438 31 17.9276 28.9365 17.9276 26.3951V23.4658L20.3627 24.9248C22.4816 26.1955 25.1843 25.4449 26.406 23.2409C27.6276 21.0453 26.906 18.2312 24.787 16.9633Z" fill="#F5EEAB"/>
</g>
<defs>
<clipPath id="clip0_671_215">
<rect width="27" height="31" fill="white"/>
</clipPath>
</defs>
</svg>
