<svg width="99" height="71" viewBox="0 0 99 71" fill="none" xmlns="http://www.w3.org/2000/svg">
<path d="M24.7798 66.4086C26.5056 57.3311 28.9435 51.1167 33.9338 42.0835C34.6449 40.7963 36.0177 40.0197 37.488 40.0514L64.0898 40.6238C65.5907 40.656 66.9506 41.5273 67.5988 42.8814C71.1979 50.4008 73.4337 55.8897 75.273 66.4286C75.6922 68.8304 73.8146 71 71.3764 71H28.656C26.2066 71 24.3224 68.8149 24.7798 66.4086Z" fill="url(#paint0_linear_204_76)"/>
<ellipse cx="50.5" cy="25.5" rx="28.5" ry="21.5" fill="#FFF7EC"/>
<path d="M60.6701 13.814C64.3062 15.0965 72.3856 19.6784 77.0664 26.588C77.6242 27.4114 78.98 27.136 78.9962 26.1416C79.2413 11.1191 67.5722 0.432939 51.119 0.00942925C36.1464 -0.375968 19.7847 11.084 22.2477 28.7393C22.303 29.1356 22.5995 29.462 22.9911 29.5446C37.6232 32.6283 55.7226 19.2251 59.5233 14.2054C59.7948 13.8468 60.2459 13.6644 60.6701 13.814Z" fill="#92BBEB"/>
<circle cx="43" cy="32" r="2.5" fill="#7BABE3" stroke="#7BABE3"/>
<circle cx="58" cy="32" r="2.5" fill="#7BABE3" stroke="#7BABE3"/>
<path d="M46 41C50.1807 42.4393 52.338 42.223 56 41" stroke="#7BABE3" stroke-width="1.5" stroke-linecap="round"/>
<ellipse cx="62" cy="37.5" rx="3" ry="1.5" fill="#FFD6D6"/>
<ellipse cx="40" cy="37.5" rx="3" ry="1.5" fill="#FFD6D6"/>
<g clip-path="url(#clip0_204_76)">
<path d="M93 12.8376V13.2667H92.9642C90.2881 13.2667 88.1171 16.7256 88.1033 21H87.8627C87.848 16.7241 85.6761 13.2667 83 13.2667V12.8376C85.6853 12.8376 87.8627 9.35375 87.8627 5.05731V5H88.1033V5.05731C88.1033 9.35375 90.2789 12.8376 92.9642 12.8376H93Z" fill="#E5F2FF"/>
</g>
<g clip-path="url(#clip1_204_76)">
<path d="M82 5.38837V5.68335H81.9785C80.3729 5.68335 79.0703 8.06135 79.062 11H78.9176C78.9088 8.06034 77.6057 5.68335 76 5.68335V5.38837C77.6112 5.38837 78.9176 2.9932 78.9176 0.0393976V0H79.062V0.0393976C79.062 2.9932 80.3673 5.38837 81.9785 5.38837H82Z" fill="#E5F2FF"/>
</g>
<g clip-path="url(#clip2_204_76)">
<path d="M16 32.8376V33.2667H15.9642C13.2881 33.2667 11.1171 36.7256 11.1033 41H10.8627C10.848 36.7241 8.6761 33.2667 6 33.2667V32.8376C8.68528 32.8376 10.8627 29.3538 10.8627 25.0573V25H11.1033V25.0573C11.1033 29.3538 13.2789 32.8376 15.9642 32.8376H16Z" fill="#E5F2FF"/>
</g>
<g clip-path="url(#clip3_204_76)">
<path d="M21 45.8782V46.2H20.9713C18.8305 46.2 17.0937 48.7942 17.0827 52H16.8902C16.8784 48.7931 15.1409 46.2 13 46.2V45.8782C15.1482 45.8782 16.8902 43.2653 16.8902 40.043V40H17.0827V40.043C17.0827 43.2653 18.8231 45.8782 20.9713 45.8782H21Z" fill="#E5F2FF"/>
</g>
<defs>
<linearGradient id="paint0_linear_204_76" x1="50" y1="40" x2="50.6898" y2="70.9936" gradientUnits="userSpaceOnUse">
<stop stop-color="#77B4FF"/>
<stop offset="0.485577" stop-color="#ADD1FF"/>
</linearGradient>
<clipPath id="clip0_204_76">
<rect width="10" height="16" fill="white" transform="translate(83 5)"/>
</clipPath>
<clipPath id="clip1_204_76">
<rect width="6" height="11" fill="white" transform="translate(76)"/>
</clipPath>
<clipPath id="clip2_204_76">
<rect width="10" height="16" fill="white" transform="translate(6 25)"/>
</clipPath>
<clipPath id="clip3_204_76">
<rect width="8" height="12" fill="white" transform="translate(13 40)"/>
</clipPath>
</defs>
</svg>
