<svg width="68" height="71" viewBox="0 0 68 71" fill="none" xmlns="http://www.w3.org/2000/svg">
<rect x="2.90894" y="3.98871" width="53.692" height="61.7858" rx="2" transform="rotate(2.69855 2.90894 3.98871)" fill="#D1B8FF"/>
<rect x="15.4791" width="30.2219" height="10.6344" rx="2" transform="rotate(2.7 15.4791 0)" fill="#C29FFE"/>
<line x1="24.1856" y1="22.1313" x2="47.5456" y2="23.2329" stroke="#C19FFE" stroke-width="3" stroke-linecap="round"/>
<line x1="8.16555" y1="35.3243" x2="47.5279" y2="37.1806" stroke="#C19FFE" stroke-width="3" stroke-linecap="round"/>
<line x1="7.22317" y1="48.5173" x2="36.2311" y2="49.8853" stroke="#C19FFE" stroke-width="3" stroke-linecap="round"/>
<line x1="12.027" y1="24.2671" x2="10.1317" y2="21.8979" stroke="#C19FFE" stroke-width="3" stroke-linecap="round"/>
<line x1="12.2506" y1="24.2647" x2="19.5529" y2="16.9624" stroke="#C19FFE" stroke-width="3" stroke-linecap="round"/>
<rect x="54.2472" y="35.8096" width="5.65415" height="11.3083" rx="2" transform="rotate(2.7 54.2472 35.8096)" fill="#C5A4FF"/>
<rect x="44.6022" y="43.3485" width="22.6705" height="26.6131" rx="4" transform="rotate(2.7 44.6022 43.3485)" fill="#A584DF"/>
<rect x="48.627" y="47.1179" width="14.5641" height="12.0298" rx="4" transform="rotate(2.7 48.627 47.1179)" fill="#EADEFF"/>
<rect x="49.1854" y="63.138" width="11.8267" height="3.88017" rx="1.94008" transform="rotate(2.7 49.1854 63.138)" fill="#C5A4FF"/>
</svg>
